{
 "cells": [
  {
   "cell_type": "markdown",
   "id": "e1291aa7",
   "metadata": {},
   "source": [
    "# Team FSH CV Pipeline\n",
    "\n",
    "## To-Do\n",
    "- upload/select video file and turn it into a folder of images\n",
    "- choose points to track\n",
    "    - display the 0th frame and allow user to click on specific spots\n",
    "    - save coordinates of clicked locations for use\n",
    "    - assign each point to a specific object, and whether the point is inclusion or exclusion\n",
    "- show results of selected points\n",
    "- run training\n",
    "- produce a video output\n",
    "\n",
    "- mark down frames where number of objects detected drops\n",
    "\n",
    "> jupyter notebook --no-browser --port=8889 --ip=0.0.0.0"
   ]
  },
  {
   "cell_type": "markdown",
   "id": "f059819d",
   "metadata": {},
   "source": [
    "### Configuration\n",
    "\n",
    "**Global Variables**"
   ]
  },
  {
   "cell_type": "code",
   "execution_count": 1,
   "id": "de7d422e",
   "metadata": {},
   "outputs": [],
   "source": [
    "INPUT_VID_PATH = \"./circle002_30s_1.avi\"\n",
    "JPEGS_DIR_PATH = \"./jpegs_dir/\" # Must be created ahead before running later code blocks\n",
    "OUTPUT_PATH = \"./output\" # Must be created ahead of time"
   ]
  },
  {
   "cell_type": "markdown",
   "id": "0404d43c",
   "metadata": {},
   "source": [
    "**Model Selection**"
   ]
  },
  {
   "cell_type": "code",
   "execution_count": null,
   "id": "a7499541",
   "metadata": {},
   "outputs": [],
   "source": [
    "sam2_checkpoint = \"../programs/sam2/checkpoints/sam2.1_hiera_large.pt\"\n",
    "model_cfg = \"configs/sam2.1/sam2.1_hiera_l.yaml\""
   ]
  },
  {
   "cell_type": "markdown",
   "id": "ceb252a3",
   "metadata": {},
   "source": [
    "### Imports"
   ]
  },
  {
   "cell_type": "code",
   "execution_count": 6,
   "id": "11c9f032",
   "metadata": {},
   "outputs": [],
   "source": [
    "import os\n",
    "# if using Apple MPS, fall back to CPU for unsupported ops\n",
    "os.environ[\"PYTORCH_ENABLE_MPS_FALLBACK\"] = \"1\"\n",
    "import numpy as np\n",
    "import torch\n",
    "import matplotlib\n",
    "matplotlib.use('Agg')\n",
    "import matplotlib.pyplot as plt\n",
    "from PIL import Image"
   ]
  },
  {
   "cell_type": "markdown",
   "id": "19416a93",
   "metadata": {},
   "source": [
    "### Hardware Checks\n",
    "\n",
    "**Cluster GPU**\n",
    "\n",
    "The graphic below should show *NVIDIA RTX A4000* or *NVIDIA RTX A5000*. If not, run one of the following commands in the terminal to request a session from the cluster.\n",
    "\n",
    "> srun --pty --ntasks=4 --gres gpu:rtxa4000:1 --qos scavenger --account scavenger --partition scavenger --mem 20G --time 48:00:00 bash\n",
    ">\n",
    "or\n",
    ">\n",
    "> srun --pty --ntasks=4 --gres gpu:rtxa5000:1 --qos scavenger --account scavenger --partition scavenger --mem 20G --time 48:00:00 bash"
   ]
  },
  {
   "cell_type": "code",
   "execution_count": 7,
   "id": "87ef0ce7",
   "metadata": {},
   "outputs": [
    {
     "name": "stdout",
     "output_type": "stream",
     "text": [
      "Mon Jun 23 16:01:19 2025       \n",
      "+-----------------------------------------------------------------------------------------+\n",
      "| NVIDIA-SMI 570.153.02             Driver Version: 570.153.02     CUDA Version: 12.8     |\n",
      "|-----------------------------------------+------------------------+----------------------+\n",
      "| GPU  Name                 Persistence-M | Bus-Id          Disp.A | Volatile Uncorr. ECC |\n",
      "| Fan  Temp   Perf          Pwr:Usage/Cap |           Memory-Usage | GPU-Util  Compute M. |\n",
      "|                                         |                        |               MIG M. |\n",
      "|=========================================+========================+======================|\n",
      "|   0  NVIDIA RTX A4000               Off |   00000000:22:00.0 Off |                  Off |\n",
      "| 41%   42C    P8             20W /  140W |       1MiB /  16376MiB |      0%      Default |\n",
      "|                                         |                        |                  N/A |\n",
      "+-----------------------------------------+------------------------+----------------------+\n",
      "                                                                                         \n",
      "+-----------------------------------------------------------------------------------------+\n",
      "| Processes:                                                                              |\n",
      "|  GPU   GI   CI              PID   Type   Process name                        GPU Memory |\n",
      "|        ID   ID                                                               Usage      |\n",
      "|=========================================================================================|\n",
      "|  No running processes found                                                             |\n",
      "+-----------------------------------------------------------------------------------------+\n"
     ]
    }
   ],
   "source": [
    "!nvidia-smi"
   ]
  },
  {
   "cell_type": "markdown",
   "id": "ec392aff",
   "metadata": {},
   "source": [
    "**PyTorch Settings**\n",
    "\n",
    "If a GPU has been requested, the following code block should output \"cuda\". Otherwise, it may output \"mps\" for Mac chips, or \"cpu\" for other CPUs. Using a GPU is recommended for timely predictions."
   ]
  },
  {
   "cell_type": "code",
   "execution_count": 8,
   "id": "2fb5ba66",
   "metadata": {},
   "outputs": [
    {
     "name": "stdout",
     "output_type": "stream",
     "text": [
      "using device: cuda\n"
     ]
    }
   ],
   "source": [
    "# select the device for computation\n",
    "if torch.cuda.is_available():\n",
    "    device = torch.device(\"cuda\")\n",
    "elif torch.backends.mps.is_available():\n",
    "    device = torch.device(\"mps\")\n",
    "else:\n",
    "    device = torch.device(\"cpu\")\n",
    "print(f\"using device: {device}\")\n",
    "\n",
    "if device.type == \"cuda\":\n",
    "    # use bfloat16 for the entire notebook\n",
    "    torch.autocast(\"cuda\", dtype=torch.float16).__enter__()\n",
    "    # turn on tfloat32 for Ampere GPUs (https://pytorch.org/docs/stable/notes/cuda.html#tensorfloat-32-tf32-on-ampere-devices)\n",
    "    if torch.cuda.get_device_properties(0).major >= 8:\n",
    "        torch.backends.cuda.matmul.allow_tf32 = True\n",
    "        torch.backends.cudnn.allow_tf32 = True\n",
    "elif device.type == \"mps\":\n",
    "    print(\n",
    "        \"\\nSupport for MPS devices is preliminary. SAM 2 is trained with CUDA and might \"\n",
    "        \"give numerically different outputs and sometimes degraded performance on MPS. \"\n",
    "        \"See e.g. https://github.com/pytorch/pytorch/issues/84936 for a discussion.\"\n",
    "    )"
   ]
  },
  {
   "cell_type": "markdown",
   "id": "b31dc2a9",
   "metadata": {},
   "source": [
    "### Data Preparation\n",
    "\n",
    "**Video to JPEG Conversion**\n",
    "\n",
    "When dealing with video data, the video needs to be converted into a folder of jpegs in order for SAM 2 to process it. Each jpeg in the folder represents a single frame in the original video."
   ]
  },
  {
   "cell_type": "code",
   "execution_count": 24,
   "id": "5d40ea7d",
   "metadata": {},
   "outputs": [
    {
     "name": "stdout",
     "output_type": "stream",
     "text": [
      "ffmpeg version 7.1 Copyright (c) 2000-2024 the FFmpeg developers\n",
      "  built with gcc 8 (GCC)\n",
      "  configuration: --prefix=/opt/local/stow/ffmpeg-7.1 --enable-shared --enable-gpl --enable-libass --enable-libfdk-aac --enable-libopus --enable-libtheora --enable-libvorbis --enable-libvpx --enable-libx264 --enable-nonfree --enable-rpath --enable-libx265 --enable-libfreetype --enable-libharfbuzz --enable-libfontconfig --enable-libfribidi --enable-ffnvcodec\n",
      "  libavutil      59. 39.100 / 59. 39.100\n",
      "  libavcodec     61. 19.100 / 61. 19.100\n",
      "  libavformat    61.  7.100 / 61.  7.100\n",
      "  libavdevice    61.  3.100 / 61.  3.100\n",
      "  libavfilter    10.  4.100 / 10.  4.100\n",
      "  libswscale      8.  3.100 /  8.  3.100\n",
      "  libswresample   5.  3.100 /  5.  3.100\n",
      "  libpostproc    58.  3.100 / 58.  3.100\n",
      "Input #0, avi, from './circle002_30s_1.avi':\n",
      "  Metadata:\n",
      "    software        : Lavf61.7.100\n",
      "  Duration: 00:00:30.00, start: 0.000000, bitrate: 212 kb/s\n",
      "  Stream #0:0: Video: h264 (High) (H264 / 0x34363248), yuv420p(tv, bt709/unknown/unknown, progressive), 1440x1080, 204 kb/s, 35 fps, 35 tbr, 35 tbn\n",
      "Stream mapping:\n",
      "  Stream #0:0 -> #0:0 (h264 (native) -> mjpeg (native))\n",
      "Press [q] to stop, [?] for help\n",
      "Output #0, image2, to './jpegs_dir//%05d.jpg':\n",
      "  Metadata:\n",
      "    software        : Lavf61.7.100\n",
      "    encoder         : Lavf61.7.100\n",
      "  Stream #0:0: Video: mjpeg, yuv420p(pc, bt709/unknown/unknown, progressive), 1440x1080, q=2-31, 200 kb/s, 35 fps, 35 tbn\n",
      "      Metadata:\n",
      "        encoder         : Lavc61.19.100 mjpeg\n",
      "      Side data:\n",
      "        cpb: bitrate max/min/avg: 0/0/200000 buffer size: 0 vbv_delay: N/A\n",
      "\u001b[1;35m[out#0/image2 @ 0x1565340] \u001b[0mvideo:54703KiB audio:0KiB subtitle:0KiB other streams:0KiB global headers:0KiB muxing overhead: unknown\n",
      "frame=  800 fps=192 q=2.0 Lsize=N/A time=00:00:30.05 bitrate=N/A speed= 7.2x    \n"
     ]
    }
   ],
   "source": [
    "!module load ffmpeg\n",
    "!ffmpeg -i {INPUT_VID_PATH} -q:v 2 -start_number 0 {JPEGS_DIR_PATH}/'%05d.jpg'"
   ]
  },
  {
   "cell_type": "markdown",
   "id": "22241024",
   "metadata": {},
   "source": [
    "**Scanning JPEG Directory**"
   ]
  },
  {
   "cell_type": "code",
   "execution_count": 10,
   "id": "5f00977c",
   "metadata": {},
   "outputs": [],
   "source": [
    "frame_names = [\n",
    "    p for p in os.listdir(JPEGS_DIR_PATH)\n",
    "    if os.path.splitext(p)[-1] in [\".jpg\", \".jpeg\", \".JPG\", \".JPEG\"]\n",
    "]\n",
    "frame_names.sort(key=lambda p: int(os.path.splitext(p)[0]))"
   ]
  },
  {
   "cell_type": "markdown",
   "id": "c4b4dd49",
   "metadata": {},
   "source": [
    "### SAM 2 Stuff\n",
    "\n",
    "**Helper Functions**"
   ]
  },
  {
   "cell_type": "code",
   "execution_count": 11,
   "id": "7880897b",
   "metadata": {},
   "outputs": [],
   "source": [
    "def show_mask(mask, ax, obj_id=None, random_color=False):\n",
    "    if random_color:\n",
    "        color = np.concatenate([np.random.random(3), np.array([0.6])], axis=0)\n",
    "    else:\n",
    "        cmap = plt.get_cmap(\"tab10\")\n",
    "        cmap_idx = 0 if obj_id is None else obj_id\n",
    "        color = np.array([*cmap(cmap_idx)[:3], 0.6])\n",
    "    h, w = mask.shape[-2:]\n",
    "    mask_image = mask.reshape(h, w, 1) * color.reshape(1, 1, -1)\n",
    "    ax.imshow(mask_image)\n",
    "\n",
    "def show_points(coords, labels, ax, marker_size=200):\n",
    "    pos_points = coords[labels==1]\n",
    "    neg_points = coords[labels==0]\n",
    "    ax.scatter(pos_points[:, 0], pos_points[:, 1], color='green', marker='*', s=marker_size, edgecolor='white', linewidth=1.25)\n",
    "    ax.scatter(neg_points[:, 0], neg_points[:, 1], color='red', marker='*', s=marker_size, edgecolor='white', linewidth=1.25)\n",
    "\n",
    "def show_box(box, ax):\n",
    "    x0, y0 = box[0], box[1]\n",
    "    w, h = box[2] - box[0], box[3] - box[1]\n",
    "    ax.add_patch(plt.Rectangle((x0, y0), w, h, edgecolor='green', facecolor=(0, 0, 0, 0), lw=2))"
   ]
  },
  {
   "cell_type": "markdown",
   "id": "00c43531",
   "metadata": {},
   "source": [
    "**Initializing the Predictor**"
   ]
  },
  {
   "cell_type": "code",
   "execution_count": 12,
   "id": "9aead4b3",
   "metadata": {},
   "outputs": [
    {
     "name": "stderr",
     "output_type": "stream",
     "text": [
      "frame loading (JPEG): 100%|███████████████████████████████████████████████████████████████████████████████████████████████████████████████| 800/800 [00:34<00:00, 23.25it/s]\n"
     ]
    }
   ],
   "source": [
    "from sam2.build_sam import build_sam2_video_predictor\n",
    "predictor = build_sam2_video_predictor(model_cfg, sam2_checkpoint, device=device)\n",
    "inference_state = predictor.init_state(\n",
    "    video_path=JPEGS_DIR_PATH,\n",
    "    offload_video_to_cpu=True,\n",
    "    offload_state_to_cpu=False,\n",
    "    )"
   ]
  },
  {
   "cell_type": "code",
   "execution_count": 13,
   "id": "1aebed4a",
   "metadata": {},
   "outputs": [],
   "source": [
    "predictor.reset_state(inference_state)"
   ]
  },
  {
   "cell_type": "markdown",
   "id": "509bfddc",
   "metadata": {},
   "source": [
    "**UI Helper Functions**"
   ]
  },
  {
   "cell_type": "code",
   "execution_count": null,
   "id": "a5138de0",
   "metadata": {},
   "outputs": [],
   "source": [
    "def add_point(frame, obj, points_arr, labels_arr, display):\n",
    "    points = np.array(points_arr, dtype=np.float32)\n",
    "    labels = np.array(labels_arr, np.int32)\n",
    "    # prompts[obj] = points, labels\n",
    "    _, out_obj_ids, out_mask_logits = predictor.add_new_points_or_box(\n",
    "        inference_state = inference_state,\n",
    "        frame_idx = frame,\n",
    "        obj_id = obj,\n",
    "        points = points,\n",
    "        labels = labels,\n",
    "    )\n",
    "\n",
    "    if display:\n",
    "        plt.figure(figsize = (9, 6))\n",
    "        plt.title(f\"frame {frame}\")\n",
    "        plt.imshow(Image.open(os.path.join(JPEGS_DIR_PATH, frame_names[frame])))\n",
    "        show_points(points, labels, plt.gca())\n",
    "        for i, out_obj_id in enumerate(out_obj_ids):\n",
    "            # show_points(*prompts[out_obj_id], plt.gca())\n",
    "            show_mask((out_mask_logits[i] > 0.0).cpu().numpy(), plt.gca(), obj_id = out_obj_id)\n",
    "        plt.savefig(f\"{OUTPUT_PATH}/point_add.png\")\n",
    "        plt.close()\n",
    "\n",
    "def propagate(vis_frame_stride, display):\n",
    "    # run propagation throughout the video and collect the results in a dict\n",
    "    video_segments = {}  # video_segments contains the per-frame segmentation results\n",
    "    for out_frame_idx, out_obj_ids, out_mask_logits in predictor.propagate_in_video(inference_state):\n",
    "        video_segments[out_frame_idx] = {\n",
    "            out_obj_id: (out_mask_logits[i] > 0.0).cpu().numpy()\n",
    "            for i, out_obj_id in enumerate(out_obj_ids)\n",
    "        }\n",
    "\n",
    "    # render the segmentation results every few frames\n",
    "    plt.close(\"all\")\n",
    "    if display:\n",
    "        for out_frame_idx in range(0, len(frame_names), vis_frame_stride):\n",
    "            plt.figure(figsize=(6, 4))\n",
    "            plt.title(f\"frame {out_frame_idx}\")\n",
    "            # plt.axis(\"off\")\n",
    "            plt.imshow(Image.open(os.path.join(JPEGS_DIR_PATH, frame_names[out_frame_idx])))\n",
    "            for out_obj_id, out_mask in video_segments[out_frame_idx].items():\n",
    "                show_mask(out_mask, plt.gca(), obj_id=out_obj_id)\n",
    "            \n",
    "            out_frame_idx = f\"{out_frame_idx:05d}\"\n",
    "            plt.savefig(f\"{OUTPUT_PATH}/propagate_{out_frame_idx}.png\")\n",
    "            plt.close()\n",
    "\n",
    "    return video_segments"
   ]
  },
  {
   "cell_type": "markdown",
   "id": "58d13d26",
   "metadata": {},
   "source": [
    "### Running Predictions"
   ]
  },
  {
   "cell_type": "code",
   "execution_count": 23,
   "id": "bf3db87b",
   "metadata": {},
   "outputs": [
    {
     "name": "stderr",
     "output_type": "stream",
     "text": [
      "propagate in video: 100%|█████████████████████████████████████████████████████████████████████████████████████████████████████████████████████████████████████████████████████████| 800/800 [01:52<00:00,  7.13it/s]\n"
     ]
    }
   ],
   "source": [
    "add_point(0, 1, [[475, 135]], [1], False)\n",
    "add_point(0, 2, [[330, 600]], [1], False)\n",
    "vid_seg = propagate(80, True)"
   ]
  },
  {
   "cell_type": "markdown",
   "id": "4a50481a",
   "metadata": {},
   "source": [
    "**Creating Output Video**"
   ]
  },
  {
   "cell_type": "code",
   "execution_count": 16,
   "id": "c830452e",
   "metadata": {},
   "outputs": [],
   "source": [
    "frames = 800\n",
    "time = 30\n",
    "fps = frames / time"
   ]
  },
  {
   "cell_type": "code",
   "execution_count": 20,
   "id": "948e3e06",
   "metadata": {},
   "outputs": [
    {
     "name": "stdout",
     "output_type": "stream",
     "text": [
      "ffmpeg version 7.1 Copyright (c) 2000-2024 the FFmpeg developers\n",
      "  built with gcc 8 (GCC)\n",
      "  configuration: --prefix=/opt/local/stow/ffmpeg-7.1 --enable-shared --enable-gpl --enable-libass --enable-libfdk-aac --enable-libopus --enable-libtheora --enable-libvorbis --enable-libvpx --enable-libx264 --enable-nonfree --enable-rpath --enable-libx265 --enable-libfreetype --enable-libharfbuzz --enable-libfontconfig --enable-libfribidi --enable-ffnvcodec\n",
      "  libavutil      59. 39.100 / 59. 39.100\n",
      "  libavcodec     61. 19.100 / 61. 19.100\n",
      "  libavformat    61.  7.100 / 61.  7.100\n",
      "  libavdevice    61.  3.100 / 61.  3.100\n",
      "  libavfilter    10.  4.100 / 10.  4.100\n",
      "  libswscale      8.  3.100 /  8.  3.100\n",
      "  libswresample   5.  3.100 /  5.  3.100\n",
      "  libpostproc    58.  3.100 / 58.  3.100\n",
      "Input #0, image2, from './output/propagate_%05d.png':\n",
      "  Duration: 00:00:30.00, start: 0.000000, bitrate: N/A\n",
      "  Stream #0:0: Video: png, rgba(pc, gbr/unknown/unknown), 600x400 [SAR 3937:3937 DAR 3:2], 26.67 fps, 26.67 tbr, 26.67 tbn\n",
      "Stream mapping:\n",
      "  Stream #0:0 -> #0:0 (png (native) -> h264 (libx264))\n",
      "Press [q] to stop, [?] for help\n",
      "\u001b[1;36m[libx264 @ 0x6d4040] \u001b[0musing SAR=1/1\n",
      "\u001b[1;36m[libx264 @ 0x6d4040] \u001b[0musing cpu capabilities: MMX2 SSE2Fast SSSE3 SSE4.2 AVX FMA3 BMI2 AVX2\n",
      "\u001b[1;36m[libx264 @ 0x6d4040] \u001b[0mprofile High, level 3.0, 4:2:0, 8-bit\n",
      "\u001b[1;36m[libx264 @ 0x6d4040] \u001b[0m264 - core 157 - H.264/MPEG-4 AVC codec - Copyleft 2003-2018 - http://www.videolan.org/x264.html - options: cabac=1 ref=3 deblock=1:0:0 analyse=0x3:0x113 me=hex subme=7 psy=1 psy_rd=1.00:0.00 mixed_ref=1 me_range=16 chroma_me=1 trellis=1 8x8dct=1 cqm=0 deadzone=21,11 fast_pskip=1 chroma_qp_offset=-2 threads=6 lookahead_threads=1 sliced_threads=0 nr=0 decimate=1 interlaced=0 bluray_compat=0 constrained_intra=0 bframes=3 b_pyramid=2 b_adapt=1 b_bias=0 direct=1 weightb=1 open_gop=0 weightp=2 keyint=250 keyint_min=25 scenecut=40 intra_refresh=0 rc_lookahead=40 rc=crf mbtree=1 crf=23.0 qcomp=0.60 qpmin=0 qpmax=69 qpstep=4 ip_ratio=1.40 aq=1:1.00\n",
      "Output #0, mp4, to 'output.mp4':\n",
      "  Metadata:\n",
      "    encoder         : Lavf61.7.100\n",
      "  Stream #0:0: Video: h264 (avc1 / 0x31637661), yuv420p(tv, progressive), 600x400 [SAR 1:1 DAR 3:2], q=2-31, 26.67 fps, 10240 tbn\n",
      "      Metadata:\n",
      "        encoder         : Lavc61.19.100 libx264\n",
      "      Side data:\n",
      "        cpb: bitrate max/min/avg: 0/0/0 buffer size: 0 vbv_delay: N/A\n",
      "\u001b[1;35m[out#0/mp4 @ 0x6a7200] \u001b[0mvideo:214KiB audio:0KiB subtitle:0KiB other streams:0KiB global headers:0KiB muxing overhead: 4.765961%\n",
      "frame=  800 fps=396 q=-1.0 Lsize=     225KiB time=00:00:29.92 bitrate=  61.5kbits/s speed=14.8x    \n",
      "\u001b[1;36m[libx264 @ 0x6d4040] \u001b[0mframe I:4     Avg QP:14.65  size: 14374\n",
      "\u001b[1;36m[libx264 @ 0x6d4040] \u001b[0mframe P:203   Avg QP:20.50  size:   417\n",
      "\u001b[1;36m[libx264 @ 0x6d4040] \u001b[0mframe B:593   Avg QP:30.90  size:   129\n",
      "\u001b[1;36m[libx264 @ 0x6d4040] \u001b[0mconsecutive B-frames:  1.0%  0.5%  0.0% 98.5%\n",
      "\u001b[1;36m[libx264 @ 0x6d4040] \u001b[0mmb I  I16..4: 22.9% 50.4% 26.7%\n",
      "\u001b[1;36m[libx264 @ 0x6d4040] \u001b[0mmb P  I16..4:  0.1%  0.2%  0.1%  P16..4:  3.1%  1.2%  0.8%  0.0%  0.0%    skip:94.6%\n",
      "\u001b[1;36m[libx264 @ 0x6d4040] \u001b[0mmb B  I16..4:  0.0%  0.0%  0.0%  B16..8:  2.6%  0.3%  0.0%  direct: 0.1%  skip:96.9%  L0:44.5% L1:53.4% BI: 2.1%\n",
      "\u001b[1;36m[libx264 @ 0x6d4040] \u001b[0m8x8 transform intra:51.6% inter:60.1%\n",
      "\u001b[1;36m[libx264 @ 0x6d4040] \u001b[0mcoded y,uvDC,uvAC intra: 37.9% 2.8% 2.1% inter: 0.5% 0.1% 0.1%\n",
      "\u001b[1;36m[libx264 @ 0x6d4040] \u001b[0mi16 v,h,dc,p: 40% 22% 16% 22%\n",
      "\u001b[1;36m[libx264 @ 0x6d4040] \u001b[0mi8 v,h,dc,ddl,ddr,vr,hd,vl,hu: 35% 10% 37%  3%  3%  3%  4%  2%  2%\n",
      "\u001b[1;36m[libx264 @ 0x6d4040] \u001b[0mi4 v,h,dc,ddl,ddr,vr,hd,vl,hu: 25% 25% 17%  5%  7%  6%  6%  6%  3%\n",
      "\u001b[1;36m[libx264 @ 0x6d4040] \u001b[0mi8c dc,h,v,p: 90%  5%  5%  0%\n",
      "\u001b[1;36m[libx264 @ 0x6d4040] \u001b[0mWeighted P-Frames: Y:0.5% UV:0.0%\n",
      "\u001b[1;36m[libx264 @ 0x6d4040] \u001b[0mref P L0: 71.5%  6.8% 14.8%  6.9%  0.1%\n",
      "\u001b[1;36m[libx264 @ 0x6d4040] \u001b[0mref B L0: 66.1% 29.3%  4.5%\n",
      "\u001b[1;36m[libx264 @ 0x6d4040] \u001b[0mref B L1: 91.1%  8.9%\n",
      "\u001b[1;36m[libx264 @ 0x6d4040] \u001b[0mkb/s:58.37\n"
     ]
    }
   ],
   "source": [
    "!ffmpeg -framerate {fps} -start_number 0 -i {OUTPUT_PATH}/\"propagate_%05d.png\" -c:v libx264 -pix_fmt yuv420p output.mp4"
   ]
  }
 ],
 "metadata": {
  "kernelspec": {
   "display_name": "Python 3 (ipykernel)",
   "language": "python",
   "name": "python3"
  },
  "language_info": {
   "codemirror_mode": {
    "name": "ipython",
    "version": 3
   },
   "file_extension": ".py",
   "mimetype": "text/x-python",
   "name": "python",
   "nbconvert_exporter": "python",
   "pygments_lexer": "ipython3",
   "version": "3.13.2"
  }
 },
 "nbformat": 4,
 "nbformat_minor": 5
}
